<svg width="100" height="100" version="1.1" xmlns="http://www.w3.org/2000/svg" desc="Created with imagetracer.js version 1.2.6" ><path fill="rgb(232,235,217)" stroke="rgb(232,235,217)" stroke-width="1" opacity="1" d="M 32.5 19 L 35.5 20 L 38.5 19 Q 41.5 20.5 38.5 22 L 28.5 27 L 28 25.5 L 29 23.5 L 26 24.5 L 31 20.5 L 30.5 22 L 33 20.5 L 32.5 19 Z " /><path fill="rgb(232,235,217)" stroke="rgb(232,235,217)" stroke-width="1" opacity="1" d="M 48.5 20 L 49.5 22 L 48.5 20 Z " /><path fill="rgb(232,235,217)" stroke="rgb(232,235,217)" stroke-width="1" opacity="1" d="M 51.5 23 L 52.5 25 L 51.5 23 Z " /><path fill="rgb(232,235,217)" stroke="rgb(232,235,217)" stroke-width="1" opacity="1" d="M 40.5 25 L 44 26.5 L 42.5 26 Q 39.5 26.5 40.5 25 Z " /><path fill="rgb(232,235,217)" stroke="rgb(232,235,217)" stroke-width="1" opacity="1" d="M 74.5 25 L 75.5 27 L 74.5 25 Z " /><path fill="rgb(232,235,217)" stroke="rgb(232,235,217)" stroke-width="1" opacity="1" d="M 53.5 26 L 55.5 27 L 57 26.5 L 54.5 28 L 53.5 26 Z " /><path fill="rgb(232,235,217)" stroke="rgb(232,235,217)" stroke-width="1" opacity="1" d="M 60.5 27 L 63 27.5 L 57 31.5 L 55.5 35 L 55 33.5 L 58.5 28 L 60.5 27 Z " /><path fill="rgb(232,235,217)" stroke="rgb(232,235,217)" stroke-width="1" opacity="1" d="M 77.5 28 L 78.5 30 L 77.5 28 Z " /><path fill="rgb(232,235,217)" stroke="rgb(232,235,217)" stroke-width="1" opacity="1" d="M 32.5 29 L 32 30.5 L 31.5 32 L 31 30.5 L 32.5 29 Z " /><path fill="rgb(232,235,217)" stroke="rgb(232,235,217)" stroke-width="1" opacity="1" d="M 65.5 31 L 64.5 33 L 65.5 31 Z " /><path fill="rgb(232,235,217)" stroke="rgb(232,235,217)" stroke-width="1" opacity="1" d="M 67.5 31 L 69 33.5 L 68 33.5 L 67.5 31 Z " /><path fill="rgb(232,235,217)" stroke="rgb(232,235,217)" stroke-width="1" opacity="1" d="M 23.5 32 L 24 42.5 L 23 42.5 L 23.5 32 Z " /><path fill="rgb(232,235,217)" stroke="rgb(232,235,217)" stroke-width="1" opacity="1" d="M 48.5 34 L 49 40.5 L 48 40.5 L 48.5 34 Z " /><path fill="rgb(232,235,217)" stroke="rgb(232,235,217)" stroke-width="1" opacity="1" d="M 68.5 35 L 67.5 37 L 68.5 35 Z " /><path fill="rgb(232,235,217)" stroke="rgb(232,235,217)" stroke-width="1" opacity="1" d="M 36.5 40 L 43 40.5 L 36.5 41 L 36.5 40 Z " /><path fill="rgb(232,235,217)" stroke="rgb(232,235,217)" stroke-width="1" opacity="1" d="M 78.5 45 L 75.5 49 L 78.5 45 Z " /><path fill="rgb(232,235,217)" stroke="rgb(232,235,217)" stroke-width="1" opacity="1" d="M 17.5 47 L 18 74.5 L 17 74.5 L 17.5 47 Z " /><path fill="rgb(232,235,217)" stroke="rgb(232,235,217)" stroke-width="1" opacity="1" d="M 70.5 60 L 71.5 62 L 70.5 60 Z " /><path fill="rgb(232,235,217)" stroke="rgb(232,235,217)" stroke-width="1" opacity="1" d="M 71.5 73 L 69.5 76 L 71.5 73 Z " /><path fill="rgb(232,235,217)" stroke="rgb(232,235,217)" stroke-width="1" opacity="1" d="M 63.5 74 L 64.5 76 L 63.5 74 Z " /><path fill="rgb(232,235,217)" stroke="rgb(232,235,217)" stroke-width="1" opacity="1" d="M 32.5 80 L 35 80.5 L 32.5 81 L 32.5 80 Z " /><path fill="rgb(232,235,217)" stroke="rgb(232,235,217)" stroke-width="1" opacity="1" d="M 44.5 80 L 48 80.5 L 44.5 81 L 44.5 80 Z " /><path fill="rgb(134,177,189)" stroke="rgb(134,177,189)" stroke-width="1" opacity="1" d="M 35.5 18 L 43.5 18 L 51 22 L 55 28.5 Q 50.5 32 52 41.5 L 55 46.5 Q 54.3 48.8 50.5 48 Q 47 47 48 41.5 Q 50.5 40 49 34.5 L 46 27 L 42.5 25 L 37.5 25 L 31 30.5 L 31 46.5 L 29.5 47 L 25.5 48 L 24 46.5 L 24 30.5 Q 25.8 23.3 31.5 20 L 35.5 18 Z M 37 19 L 31 22 L 28 26 L 29 27 L 40 21 L 37 19 Z " /><path fill="rgb(255,255,255)" stroke="rgb(255,255,255)" stroke-width="1" opacity="1" d="M 0 0 L 100 0 L 100 100 L 0 100 L 0 0 Z M 35 18 L 31 20 Q 21 26 23 43 L 20 44 L 17 48 L 17 75 L 23 79 L 33 81 L 48 81 L 57 79 L 60 77 Q 62 78 61 76 Q 63 72 65 76 Q 71 77 72 74 Q 73 68 70 67 Q 69 64 72 65 Q 73 61 70 60 Q 73 57 72 50 L 76 49 L 81 42 Q 82 33 79 30 Q 76 25 70 23 L 60 24 L 55 27 L 53 25 Q 49 16 35 18 Z " /><path fill="rgb(255,255,255)" stroke="rgb(255,255,255)" stroke-width="1" opacity="1" d="M 39.5 25 L 47 29.5 L 48 31.5 L 48 41 L 36.5 40 L 31 41 Q 29.3 31 34.5 27 L 39.5 25 Z " /><path fill="rgb(255,255,255)" stroke="rgb(255,255,255)" stroke-width="1" opacity="1" d="M 66.5 31 L 69 34.5 L 65.5 37 L 64 33.5 L 66.5 31 Z " /><path fill="rgb(231,188,57)" stroke="rgb(231,188,57)" stroke-width="1" opacity="1" d="M 64.5 23 L 68 23.5 L 64.5 24 L 64.5 23 Z " /><path fill="rgb(231,188,57)" stroke="rgb(231,188,57)" stroke-width="1" opacity="1" d="M 54.5 29 L 53.5 31 L 54.5 29 Z " /><path fill="rgb(231,188,57)" stroke="rgb(231,188,57)" stroke-width="1" opacity="1" d="M 64.5 36 L 65.5 38 L 64.5 36 Z " /><path fill="rgb(231,188,57)" stroke="rgb(231,188,57)" stroke-width="1" opacity="1" d="M 23.5 43 L 25 47.5 L 23 46.5 L 23.5 43 Z " /><path fill="rgb(231,188,57)" stroke="rgb(231,188,57)" stroke-width="1" opacity="1" d="M 75.5 45 L 74.5 49 Q 71 47 75.5 45 Z " /><path fill="rgb(231,188,57)" stroke="rgb(231,188,57)" stroke-width="1" opacity="1" d="M 48.5 46 L 49.5 48 L 48.5 46 Z " /><path fill="rgb(231,188,57)" stroke="rgb(231,188,57)" stroke-width="1" opacity="1" d="M 19.5 47 L 20.5 49 L 19.5 47 Z " /><path fill="rgb(231,188,57)" stroke="rgb(231,188,57)" stroke-width="1" opacity="1" d="M 60.5 50 L 61 69.5 L 60 69.5 L 60.5 50 Z " /><path fill="rgb(231,188,57)" stroke="rgb(231,188,57)" stroke-width="1" opacity="1" d="M 32.5 51 L 36 51.5 L 32.5 52 L 32.5 51 Z " /><path fill="rgb(231,188,57)" stroke="rgb(231,188,57)" stroke-width="1" opacity="1" d="M 43.5 51 L 47 51.5 L 43.5 52 L 43.5 51 Z " /><path fill="rgb(231,188,57)" stroke="rgb(231,188,57)" stroke-width="1" opacity="1" d="M 69.5 51 L 70 54.5 L 69 54.5 L 69.5 51 Z " /><path fill="rgb(231,188,57)" stroke="rgb(231,188,57)" stroke-width="1" opacity="1" d="M 70.5 67 L 72 69.5 L 71 69.5 L 70.5 67 Z " /><path fill="rgb(231,188,57)" stroke="rgb(231,188,57)" stroke-width="1" opacity="1" d="M 18.5 75 L 19.5 77 L 18.5 75 Z " /><path fill="rgb(253,206,47)" stroke="rgb(253,206,47)" stroke-width="1" opacity="1" d="M 60.5 24 Q 73.5 22.5 77 30.5 Q 79.5 34 78 41.5 L 71.5 49 Q 69.3 48.3 70 50.5 Q 67.8 51.8 69 56.5 L 67 58.5 L 69 63.5 L 68 67.5 L 70 70.5 L 69 74 L 66.5 75 L 65.5 52 L 64 53.5 L 64 74 Q 61.3 75.1 62 72.5 L 61 71.5 L 61 50.5 L 59.5 49 L 54 44.5 Q 51.3 41.2 52 34.5 L 58.5 25 L 60.5 24 Z M 61 27 L 56 31 L 57 33 L 57 32 L 63 28 L 61 27 Z M 64 30 L 61 34 L 62 37 L 65 38 L 68 37 Q 70 36 69 33 Q 68 29 64 30 Z " /><path fill="rgb(253,206,47)" stroke="rgb(253,206,47)" stroke-width="1" opacity="1" d="M 31 41 L 48 41 L 48 46.5 L 56 49.5 L 53.5 51 L 36.5 52 L 35.5 51 L 26.5 51 L 19 46.5 Q 17.9 43.2 20.5 44 L 23 43 Q 22 46.8 24.5 48 Q 29.8 49.3 31 46.5 L 31 41 Z " /><path fill="rgb(253,206,47)" stroke="rgb(253,206,47)" stroke-width="1" opacity="1" d="M 35.5 80 L 44 80.5 L 35.5 81 L 35.5 80 Z " /><path fill="rgb(147,109,26)" stroke="rgb(147,109,26)" stroke-width="1" opacity="1" d="M 74.5 26 Q 80.3 29.3 81 37.5 L 78 45.5 L 75.5 48 L 72 50.5 L 70 60.5 Q 73.5 62 71 63.5 L 70 67.5 L 72 71.5 L 68.5 76 L 67 75.5 Q 71 74.5 70 68.5 L 68 65.5 L 70 61.5 L 68 57.5 L 70 55.5 Q 68.8 50.3 71.5 49 L 77 44.5 Q 80.2 41.2 79 33.5 L 74.5 26 Z " /><path fill="rgb(147,109,26)" stroke="rgb(147,109,26)" stroke-width="1" opacity="1" d="M 63.5 31 L 65 31.5 L 63 34.5 L 64 36.5 L 62 35.5 Q 61.3 31.8 63.5 31 Z " /><path fill="rgb(147,109,26)" stroke="rgb(147,109,26)" stroke-width="1" opacity="1" d="M 55.5 46 L 54.5 48 L 55.5 46 Z " /><path fill="rgb(147,109,26)" stroke="rgb(147,109,26)" stroke-width="1" opacity="1" d="M 57 49 L 60 50.5 L 60 71.5 L 61 74 L 57 71.5 L 57 49 Z " /><path fill="rgb(147,109,26)" stroke="rgb(147,109,26)" stroke-width="1" opacity="1" d="M 37.5 58 Q 43 57 44 60.5 L 42 67.5 L 44 72.5 Q 42.5 75.5 36.5 74 L 35 70.5 L 37 65.5 Q 34.3 64.8 35 60.5 L 37.5 58 Z " /><path fill="rgb(225,166,16)" stroke="rgb(225,166,16)" stroke-width="1" opacity="1" d="M 72.5 25 L 73.5 27 L 72.5 25 Z " /><path fill="rgb(225,166,16)" stroke="rgb(225,166,16)" stroke-width="1" opacity="1" d="M 75.5 28 L 76.5 30 L 75.5 28 Z " /><path fill="rgb(225,166,16)" stroke="rgb(225,166,16)" stroke-width="1" opacity="1" d="M 78.5 33 L 79 35.5 L 78 35.5 L 78.5 33 Z " /><path fill="rgb(225,166,16)" stroke="rgb(225,166,16)" stroke-width="1" opacity="1" d="M 78.5 38 L 79 40.5 L 78 40.5 L 78.5 38 Z " /><path fill="rgb(225,166,16)" stroke="rgb(225,166,16)" stroke-width="1" opacity="1" d="M 18.5 46 L 20.5 49 L 32.5 52 L 46.5 52 L 57 50 L 57 71.5 L 59.5 74 L 61 74.5 L 60 77 L 48.5 80 L 30.5 80 L 22.5 78 L 18 74.5 L 18.5 46 Z M 38 58 L 35 61 Q 34 65 37 66 L 35 71 L 37 74 Q 42 75 44 73 L 42 68 L 44 61 Q 43 57 38 58 Z " /><path fill="rgb(225,166,16)" stroke="rgb(225,166,16)" stroke-width="1" opacity="1" d="M 55 47 L 58 48.5 L 55 49 L 55 47 Z " /><path fill="rgb(225,166,16)" stroke="rgb(225,166,16)" stroke-width="1" opacity="1" d="M 65.5 52 L 66 74.5 L 67 75.5 L 65.5 76 L 64 74.5 L 64 53.5 L 65.5 52 Z " /><path fill="rgb(225,166,16)" stroke="rgb(225,166,16)" stroke-width="1" opacity="1" d="M 68.5 60 L 69.5 62 L 68.5 60 Z " /><path fill="rgb(225,166,16)" stroke="rgb(225,166,16)" stroke-width="1" opacity="1" d="M 69.5 63 L 68.5 65 L 69.5 63 Z " /></svg>